<?xml version="1.0" encoding="utf-8"?>
<!-- Generator: Adobe Illustrator 21.0.0, SVG Export Plug-In . SVG Version: 6.00 Build 0)  -->
<svg version="1.1" id="Layer_1" xmlns="http://www.w3.org/2000/svg" xmlns:xlink="http://www.w3.org/1999/xlink" x="0px" y="0px"
	 viewBox="0 0 1102.2 443.8" style="enable-background:new 0 0 1102.2 443.8;" xml:space="preserve">
<style type="text/css">
	.st0{fill:none;stroke:#FFE8D5;stroke-width:1.5;stroke-miterlimit:10;}
</style>
<title>bg</title>
<path class="st0" d="M1102.2,187.6c-6.7-8.1-33.5-24.3-125-54.8c-153-51-215,6-215,6s-146,70-179,93c0,0-267-68-248-122
	c6.5-18.3,32.3-34.9,63.8-48.8c61.2-27.2,143.3-44.2,143.3-44.2s154-36,329,0s230.9,66.3,230.9,66.3"/>
<path class="st0" d="M583.2,231.8c33-23,179-93,179-93s62-57,215-6c91.5,30.5,118.3,46.7,125,54.8"/>
<path class="st0" d="M1102.2,443.1"/>
<path class="st0" d="M0.2,443.1c0,0,281-73.3,385-120.3s165-68,198-91"/>
<path class="st0" d="M602,7c-16.2,14.3-24.8,52.7-32.8,80.7s-21,23.8-21,23.8h-57l-72-4.8c0,0-13,0.7-14-23.7l-1-24.4"/>
<path class="st0" d="M871.2,16.8c-7.3,24-7.3,25.3-20.7,47.3s-37.3,24.7-37.3,24.7s-29.3,4.7-47.3,17.3s-31.3,10.2-31.3,10.2
	l-97.3-4.5h-18.7c0,0-20.7-1-21.3-23s0-42.7,0-42.7s1.7-24.8,19.8-40.7"/>
<path class="st0" d="M431.2,183c0,0-9.3,17.2,10.3,27.7s31.4-12.3,31.4-12.3L431.2,183z"/>
</svg>
